<svg xmlns="http://www.w3.org/2000/svg" viewBox="0 0 1200 1500" width="1200" height="1500" role="img" aria-hidden="true"> <defs> <linearGradient id="bgnewseason1" x1="0" y1="0" x2="0.6" y2="1"> <stop offset="0%" stop-color="#1e2027"/><stop offset="100%" stop-color="#151618"/> </linearGradient> <radialGradient id="litnewseason1" cx="0.5" cy="0.34" r="0.62"> <stop offset="0%" stop-color="#9a9b9e" stop-opacity="0.55"/><stop offset="100%" stop-color="#9a9b9e" stop-opacity="0"/> </radialGradient> <radialGradient id="shdnewseason1" cx="0.52" cy="0.86" r="0.5"> <stop offset="0%" stop-color="#000000" stop-opacity="0.6"/><stop offset="100%" stop-color="#000000" stop-opacity="0"/> </radialGradient> <filter id="gnewseason1"><feTurbulence type="fractalNoise" baseFrequency="0.9" numOctaves="3" seed="7"/><feColorMatrix type="saturate" values="0"/></filter> <clipPath id="cpnewseason1"><rect width="1200" height="1500"/></clipPath> </defs> <g clip-path="url(#cpnewseason1)"> <rect width="1200" height="1500" fill="url(#bgnewseason1)"/> <g transform="translate(-176.0 -205.0) scale(1.28)"> <rect width="1200" height="1500" fill="url(#litnewseason1)"/> <path d="M 396.2871475408665 890.2625130352216 C 215.1579693756606 384.9000483183741 396.2871475408665 211.81882321459977 622.6986202473739 565.7352159656448 C 698.169111149543 414.28914399984217 1014.1244821728374 514.7109671462049 1014.1244821728374 1203.239134314032 C 1165.0654639771756 1506.131278245637 758.5455038712784 1322.9655757946573 607.60452206694 1258.0601163807419 C 456.6635402626018 1149.884350690883 305.72255845826356 1020.0734318630523 396.2871475408665 890.2625130352216 Z" fill="#0e0e10" opacity="0.5"/> <path d="M 463.8866954221266 691.9085256167766 C 304.4319155726879 405.6473883064975 463.8866954221266 301.1963003216346 663.2051702339251 496.0627356451588 C 729.6446618378578 404.66803365840383 997.8997664446986 483.9857042951446 997.8997664446986 967.5727433769539 C 1130.778749652564 1150.3621473504638 782.796255121004 953.0362455789336 649.9172719131385 913.8670875846101 C 517.0382887052729 848.5851575940709 384.1593054974072 770.2468416054237 463.8866954221266 691.9085256167766 Z" fill="#383a41" opacity="0.72"/> <path d="M 470.66061147922704 909.7476329233009 C 307.70586428987406 755.9749241935674 470.66061147922704 686.3604437182177 674.3540454659183 779.2204820320201 C 742.2518567948154 718.3078116160889 1008.4339183128808 808.1857845500798 1008.4339183128808 1075.4042760209256 C 1144.2295409706749 1197.2296168527878 796.570105857933 1083.7838341116753 660.7744832001389 1057.6784039334193 C 524.9788605423447 1014.1693536363256 389.1832378845505 961.9584932798133 470.66061147922704 909.7476329233009 Z" fill="#2d2d2f" opacity="0.6"/> <line x1="326.3" y1="344.9" x2="626.5" y2="344.9" stroke="#ffffff" stroke-opacity="0.14" stroke-width="1"/><line x1="113.7" y1="295.8" x2="542.7" y2="295.8" stroke="#ffffff" stroke-opacity="0.14" stroke-width="1"/><line x1="257.6" y1="889.1" x2="786.9" y2="889.1" stroke="#ffffff" stroke-opacity="0.14" stroke-width="1"/> </g> <rect width="1200" height="1500" fill="url(#shdnewseason1)"/> <rect width="1200" height="1500" filter="url(#gnewseason1)" opacity="0.09"/> <text x="72.0" y="1395.0" font-family="Helvetica Neue, Arial, sans-serif" font-size="25" letter-spacing="10.5" fill="#d5d5d5" fill-opacity="0.85">NOVA</text> <text x="72.0" y="1447.5" font-family="Helvetica Neue, Arial, sans-serif" font-size="16" letter-spacing="2.6" fill="#b9b9ba" fill-opacity="0.4">NOVA</text> </g> </svg>