<svg xmlns="http://www.w3.org/2000/svg" viewBox="0 0 1600 2000" width="1600" height="2000" role="img" aria-hidden="true"> <defs> <linearGradient id="bgeditorial3" x1="0" y1="0" x2="0.6" y2="1"> <stop offset="0%" stop-color="#b8967e"/><stop offset="100%" stop-color="#5e4c41"/> </linearGradient> <radialGradient id="liteditorial3" cx="0.5" cy="0.34" r="0.62"> <stop offset="0%" stop-color="#dfd0c5" stop-opacity="0.55"/><stop offset="100%" stop-color="#dfd0c5" stop-opacity="0"/> </radialGradient> <radialGradient id="shdeditorial3" cx="0.52" cy="0.86" r="0.5"> <stop offset="0%" stop-color="#443227" stop-opacity="0.6"/><stop offset="100%" stop-color="#443227" stop-opacity="0"/> </radialGradient> <filter id="geditorial3"><feTurbulence type="fractalNoise" baseFrequency="0.9" numOctaves="3" seed="7"/><feColorMatrix type="saturate" values="0"/></filter> <clipPath id="cpeditorial3"><rect width="1600" height="2000"/></clipPath> </defs> <g clip-path="url(#cpeditorial3)"> <rect width="1600" height="2000" fill="url(#bgeditorial3)"/> <g transform="translate(-115.0 -137.0) scale(1.14)"> <rect width="1600" height="2000" fill="url(#liteditorial3)"/> <path d="M 583.9581708535163 815.188873070468 C 392.0551874891438 412.6313804924615 583.9581708535163 187.42983336040012 823.8369000589819 392.93597219785295 C 903.7964764608038 195.8846184572992 1251.5336712148917 581.5325408415075 1251.5336712148917 1240.0249647105343 C 1411.4528240185355 1634.1276721916418 967.7641375822612 1378.1927409006216 807.8449847786176 1293.7421607260985 C 647.9258319749738 1152.9911937685602 488.00667917133006 984.090033419514 583.9581708535163 815.188873070468 Z" fill="#7a5c47" opacity="0.5"/> <path d="M 412.20502404515156 806.1857741942497 C 238.7152794319346 543.3478622617902 412.20502404515156 419.18487628187273 629.0672048116728 573.3801754819044 C 701.3545984005132 464.7375627494767 1024.9284760017774 636.4701017467282 1024.9284760017774 1035.9773140806922 C 1169.5032631794581 1253.2625395455477 759.1845132715855 1116.5932391440433 614.6097260939047 1070.0321194015742 C 470.03493891622384 992.4302531641258 325.46015173854306 899.3080136791878 412.20502404515156 806.1857741942497 Z" fill="#d2b098" opacity="0.72"/> <path d="M 575.9645743071703 838.7558162200785 C 369.7234579668599 633.3742680698871 575.9645743071703 555.2771997112114 833.7659697325582 692.3238130475617 C 919.6997682076876 623.9888782337205 1290.4701658319027 691.9470693388938 1290.4701658319027 1034.5226697307319 C 1462.3377627821615 1171.1925393584143 988.4468069877911 1033.9984871167676 816.5792100375324 1004.7120864822642 C 644.7116130872737 955.901418758092 472.8440161370151 897.3286174890852 575.9645743071703 838.7558162200785 Z" fill="#a9866d" opacity="0.6"/> <line x1="56.9" y1="1559.8" x2="1210.1" y2="1559.8" stroke="#ffffff" stroke-opacity="0.14" stroke-width="1"/><line x1="423.9" y1="907.2" x2="1250.4" y2="907.2" stroke="#ffffff" stroke-opacity="0.14" stroke-width="1"/><line x1="143.5" y1="1221.7" x2="652.4" y2="1221.7" stroke="#ffffff" stroke-opacity="0.14" stroke-width="1"/> </g> <rect width="1600" height="2000" fill="url(#shdeditorial3)"/> <rect width="1600" height="2000" filter="url(#geditorial3)" opacity="0.09"/> <text x="96.0" y="1860.0" font-family="Helvetica Neue, Arial, sans-serif" font-size="34" letter-spacing="14.3" fill="#e2dfdd" fill-opacity="0.85">NOVA</text> </g> </svg>