<svg xmlns="http://www.w3.org/2000/svg" viewBox="0 0 1920 1200" width="1920" height="1200" role="img" aria-hidden="true"> <defs> <linearGradient id="bgbestsellershero2" x1="0" y1="0" x2="0.6" y2="1"> <stop offset="0%" stop-color="#463a33"/><stop offset="100%" stop-color="#15161a"/> </linearGradient> <radialGradient id="litbestsellershero2" cx="0.5" cy="0.34" r="0.62"> <stop offset="0%" stop-color="#aca6a3" stop-opacity="0.55"/><stop offset="100%" stop-color="#aca6a3" stop-opacity="0"/> </radialGradient> <radialGradient id="shdbestsellershero2" cx="0.52" cy="0.86" r="0.5"> <stop offset="0%" stop-color="#000000" stop-opacity="0.6"/><stop offset="100%" stop-color="#000000" stop-opacity="0"/> </radialGradient> <filter id="gbestsellershero2"><feTurbulence type="fractalNoise" baseFrequency="0.9" numOctaves="3" seed="7"/><feColorMatrix type="saturate" values="0"/></filter> <clipPath id="cpbestsellershero2"><rect width="1920" height="1200"/></clipPath> </defs> <g clip-path="url(#cpbestsellershero2)"> <rect width="1920" height="1200" fill="url(#bgbestsellershero2)"/> <g transform="translate(140.4 80.0) scale(0.86)"> <rect width="1920" height="1200" fill="url(#litbestsellershero2)"/> <path d="M 528.2673869224892 534.7805341061023 C 295.1669919593324 170.48702021993097 528.2673869224892 37.44590955808056 819.6428806264353 285.3284516151328 C 916.7680451944173 168.91747978601364 1360.834637877986 270.26785321631877 1360.834637877986 788.8518024451967 C 1555.08496701395 1021.6737461034348 994.4681768488028 867.3833107607284 800.2178477128389 817.4928942625345 C 605.9675185768748 734.3422000988779 411.71718944091083 634.5613671024902 528.2673869224892 534.7805341061023 Z" fill="#0a0b0e" opacity="0.5"/> <path d="M 938.7614525001138 695.8485456480165 C 747.2390657565362 457.385273195381 938.7614525001138 361.11081983766724 1178.1644359295858 515.3339456023033 C 1257.9654304060764 431.09379891430376 1601.8112298050698 529.5911132136663 1601.8112298050698 885.2667639452017 C 1761.4132187580512 1053.7470573212006 1321.8062259872688 936.5346790423008 1162.2042370342876 900.4317590331582 C 1002.6022480813062 840.2602256845871 843.0002591283251 768.0543856663018 938.7614525001138 695.8485456480165 Z" fill="#60544d" opacity="0.72"/> <path d="M 575.3322537475567 671.3144080967777 C 315.08974910278795 552.0909996274145 575.3322537475567 491.1438252253981 900.6353845535177 557.038456092997 C 1009.069761488838 503.70967849123264 1398.8181404652933 597.8013804289268 1398.8181404652933 814.6852183025727 C 1615.6868943359339 921.3427735061014 1095.8172630370943 823.6823441018187 878.9485091664536 800.8271537010625 C 662.0797552958129 762.7351696998022 445.2110014251723 717.02478889829 575.3322537475567 671.3144080967777 Z" fill="#28292c" opacity="0.6"/> <line x1="543.2" y1="834.4" x2="1419.6" y2="834.4" stroke="#ffffff" stroke-opacity="0.14" stroke-width="1"/><line x1="242.7" y1="948.4" x2="1792.9" y2="948.4" stroke="#ffffff" stroke-opacity="0.14" stroke-width="1"/><line x1="481.8" y1="685.4" x2="1268.1" y2="685.4" stroke="#ffffff" stroke-opacity="0.14" stroke-width="1"/> </g> <rect width="1920" height="1200" fill="url(#shdbestsellershero2)"/> <rect width="1920" height="1200" filter="url(#gbestsellershero2)" opacity="0.09"/> <text x="115.2" y="1116.0" font-family="Helvetica Neue, Arial, sans-serif" font-size="25" letter-spacing="10.5" fill="#d5d5d6" fill-opacity="0.85">NOVA</text> <text x="115.2" y="1158.0" font-family="Helvetica Neue, Arial, sans-serif" font-size="16" letter-spacing="2.6" fill="#b9b9ba" fill-opacity="0.4">AW26</text> </g> </svg>