<svg xmlns="http://www.w3.org/2000/svg" viewBox="0 0 1200 1500" width="1200" height="1500" role="img" aria-hidden="true"> <defs> <linearGradient id="bgpremiumsweatpants0" x1="0" y1="0" x2="0.6" y2="1"> <stop offset="0%" stop-color="#b9b8aa"/><stop offset="100%" stop-color="#c8c3b9"/> </linearGradient> <radialGradient id="litpremiumsweatpants0" cx="0.5" cy="0.34" r="0.62"> <stop offset="0%" stop-color="#e0dfd9" stop-opacity="0.55"/><stop offset="100%" stop-color="#e0dfd9" stop-opacity="0"/> </radialGradient> <radialGradient id="shdpremiumsweatpants0" cx="0.52" cy="0.86" r="0.5"> <stop offset="0%" stop-color="#aea99f" stop-opacity="0.6"/><stop offset="100%" stop-color="#aea99f" stop-opacity="0"/> </radialGradient> <filter id="gpremiumsweatpants0"><feTurbulence type="fractalNoise" baseFrequency="0.9" numOctaves="3" seed="7"/><feColorMatrix type="saturate" values="0"/></filter> <clipPath id="cppremiumsweatpants0"><rect width="1200" height="1500"/></clipPath> </defs> <g clip-path="url(#cppremiumsweatpants0)"> <rect width="1200" height="1500" fill="url(#bgpremiumsweatpants0)"/> <g transform="translate(0.0 0.0) scale(1)"> <rect width="1200" height="1500" fill="url(#litpremiumsweatpants0)"/> <path d="M 301.3493533966591 909.5171207371327 C 182.26953600781928 429.43470935339286 301.3493533966591 269.358553225124 450.19912513270896 609.3743279966286 C 499.8157157113922 469.3076913843933 712.0917180681326 549.4918264495946 712.0917180681326 1290.1961746770648 C 811.3248992254992 1570.3294479015353 539.5089881743388 1309.7075110578048 440.2758070169723 1249.678952509704 C 341.0426258596057 1149.631354929536 241.8094447022392 1029.5742378333343 301.3493533966591 909.5171207371327 Z" fill="#a9a59c" opacity="0.5"/> <path d="M 405.18615001923047 817.8102752778774 C 224.8184791572564 634.1813118817337 405.18615001923047 542.3547734971894 630.645738596698 645.635515806857 C 705.7989347891872 565.2872947203807 1039.7104883773777 703.0512156701418 1039.7104883773777 976.6994955073528 C 1190.016880762356 1137.3959376803052 765.9214917431785 1047.376621239238 615.6150993582002 1012.9416693450339 C 465.3087069732218 955.5500828546938 315.00231458824345 886.6801790662855 405.18615001923047 817.8102752778774 Z" fill="#d3d2c4" opacity="0.72"/> <path d="M 435.9070658384888 707.3884790087011 C 265.00004007611426 549.2155271599361 435.9070658384888 470.8226808661953 649.5408480414569 560.4018922079372 C 720.7521087757797 491.808151700914 991.6409087825512 608.0101618802416 991.6409087825512 882.3653810900253 C 1134.0634302511967 1019.5528621040717 777.7211173632379 903.3705947430531 635.2985958945924 873.9732773829003 C 492.87607442594697 824.9777484493122 350.45355295730155 766.1831137290067 435.9070658384888 707.3884790087011 Z" fill="#dedacf" opacity="0.6"/> <line x1="313.2" y1="1206.2" x2="1224.0" y2="1206.2" stroke="#ffffff" stroke-opacity="0.14" stroke-width="1"/><line x1="226.1" y1="1179.5" x2="1143.1" y2="1179.5" stroke="#ffffff" stroke-opacity="0.14" stroke-width="1"/><line x1="292.3" y1="217.4" x2="1211.7" y2="217.4" stroke="#ffffff" stroke-opacity="0.14" stroke-width="1"/> </g> <rect width="1200" height="1500" fill="url(#shdpremiumsweatpants0)"/> <rect width="1200" height="1500" filter="url(#gpremiumsweatpants0)" opacity="0.09"/> <text x="72.0" y="1395.0" font-family="Helvetica Neue, Arial, sans-serif" font-size="25" letter-spacing="10.5" fill="#f5f4f2" fill-opacity="0.85">NOVA</text> <text x="72.0" y="1447.5" font-family="Helvetica Neue, Arial, sans-serif" font-size="16" letter-spacing="2.6" fill="#efedea" fill-opacity="0.5">DETAIL</text> </g> </svg>