<svg xmlns="http://www.w3.org/2000/svg" viewBox="0 0 1000 1000" width="1000" height="1000" role="img" aria-hidden="true"> <defs> <linearGradient id="bgsocial11" x1="0" y1="0" x2="0.6" y2="1"> <stop offset="0%" stop-color="#443832"/><stop offset="100%" stop-color="#111216"/> </linearGradient> <radialGradient id="litsocial11" cx="0.5" cy="0.34" r="0.62"> <stop offset="0%" stop-color="#aba5a3" stop-opacity="0.55"/><stop offset="100%" stop-color="#aba5a3" stop-opacity="0"/> </radialGradient> <radialGradient id="shdsocial11" cx="0.52" cy="0.86" r="0.5"> <stop offset="0%" stop-color="#000000" stop-opacity="0.6"/><stop offset="100%" stop-color="#000000" stop-opacity="0"/> </radialGradient> <filter id="gsocial11"><feTurbulence type="fractalNoise" baseFrequency="0.9" numOctaves="3" seed="7"/><feColorMatrix type="saturate" values="0"/></filter> <clipPath id="cpsocial11"><rect width="1000" height="1000"/></clipPath> </defs> <g clip-path="url(#cpsocial11)"> <rect width="1000" height="1000" fill="url(#bgsocial11)"/> <g transform="translate(-148.0 -135.0) scale(1.28)"> <rect width="1000" height="1000" fill="url(#litsocial11)"/> <path d="M 237.3393247344897 458.1064723321297 C 126.24291151598364 244.87686627277893 237.3393247344897 134.59865636831103 376.2098412576223 251.33482876125242 C 422.50001343199983 154.841395094843 584.4937866207415 327.58552370112983 584.4937866207415 758.4077155052918 C 677.0741309694965 951.3945828381106 459.5321511715019 733.8019970932994 366.9518068227468 692.447668379124 C 274.37146247399176 623.5237871888315 181.79111812523666 540.8151297604807 237.3393247344897 458.1064723321297 Z" fill="#0a0b0e" opacity="0.5"/> <path d="M 301.1371514211754 519.7170188182192 C 152.3498762811998 341.95540974634275 301.1371514211754 267.2034094223319 487.1212453461449 379.55701821069886 C 549.1159433211348 314.14901792718933 765.852500554206 398.0194099893509 765.852500554206 656.027547100052 C 889.8418965041857 786.8435476670709 598.7117017011267 706.5970196282464 474.72230575114696 678.5650195067424 C 350.73290980116724 631.8450193042355 226.74351385118763 575.7810190612274 301.1371514211754 519.7170188182192 Z" fill="#5e524c" opacity="0.72"/> <path d="M 340.8293253284221 512.8060281675365 C 202.6460125806239 424.26657350171666 340.8293253284221 381.0865761693412 513.5584662631699 431.84353316933243 C 571.1348465747525 394.0610355035039 770.4170579630562 456.6515715009983 770.4170579630562 624.8455596685308 C 885.5698185862213 700.4105550001879 617.1959508240186 620.7560214984752 502.04319020085336 604.5635224988345 C 386.8904295776882 577.5760241660997 271.737668954523 545.1910261668181 340.8293253284221 512.8060281675365 Z" fill="#28292c" opacity="0.6"/> <line x1="241.1" y1="136.0" x2="746.4" y2="136.0" stroke="#ffffff" stroke-opacity="0.14" stroke-width="1"/><line x1="238.0" y1="879.5" x2="633.7" y2="879.5" stroke="#ffffff" stroke-opacity="0.14" stroke-width="1"/><line x1="71.4" y1="475.1" x2="865.8" y2="475.1" stroke="#ffffff" stroke-opacity="0.14" stroke-width="1"/> </g> <rect width="1000" height="1000" fill="url(#shdsocial11)"/> <rect width="1000" height="1000" filter="url(#gsocial11)" opacity="0.09"/> <text x="60.0" y="930.0" font-family="Helvetica Neue, Arial, sans-serif" font-size="21" letter-spacing="8.8" fill="#d4d4d5" fill-opacity="0.85">NOVA</text> <text x="60.0" y="965.0" font-family="Helvetica Neue, Arial, sans-serif" font-size="13" letter-spacing="2.1" fill="#b8b8b9" fill-opacity="0.4">#NOVAMOVE</text> </g> </svg>