<svg xmlns="http://www.w3.org/2000/svg" viewBox="0 0 1200 1500" width="1200" height="1500" role="img" aria-hidden="true"> <defs> <linearGradient id="bgtechvest0" x1="0" y1="0" x2="0.6" y2="1"> <stop offset="0%" stop-color="#465123"/><stop offset="100%" stop-color="#0d0e12"/> </linearGradient> <radialGradient id="littechvest0" cx="0.5" cy="0.34" r="0.62"> <stop offset="0%" stop-color="#acb19c" stop-opacity="0.55"/><stop offset="100%" stop-color="#acb19c" stop-opacity="0"/> </radialGradient> <radialGradient id="shdtechvest0" cx="0.52" cy="0.86" r="0.5"> <stop offset="0%" stop-color="#000000" stop-opacity="0.6"/><stop offset="100%" stop-color="#000000" stop-opacity="0"/> </radialGradient> <filter id="gtechvest0"><feTurbulence type="fractalNoise" baseFrequency="0.9" numOctaves="3" seed="7"/><feColorMatrix type="saturate" values="0"/></filter> <clipPath id="cptechvest0"><rect width="1200" height="1500"/></clipPath> </defs> <g clip-path="url(#cptechvest0)"> <rect width="1200" height="1500" fill="url(#bgtechvest0)"/> <g transform="translate(0.0 0.0) scale(1)"> <rect width="1200" height="1500" fill="url(#littechvest0)"/> <path d="M 217.85484834188117 680.3433093012713 C 54.6545523601161 203.06808075273517 217.85484834188117 38.92245296340019 421.8552183190875 372.57025719626824 C 489.85534164482294 228.94283288060012 726.6850378506389 326.1773015947364 726.6850378506389 1018.8077631764052 C 862.6852845021098 1306.0626118077414 544.2554403054113 1090.7073787746087 408.2551936539404 1029.1527683536083 C 272.2549470024695 926.5617509852739 136.25470035099863 803.4525301432726 217.85484834188117 680.3433093012713 Z" fill="#0a0b0e" opacity="0.5"/> <path d="M 201.93431426019808 710.1074847905966 C 63.29446370684954 461.1992438066477 201.93431426019808 349.8580657081952 375.23412745188375 501.34277585599824 C 433.0007318491123 403.9192450198523 660.4012574325748 544.705127380487 660.4012574325748 972.3401906939696 C 775.9344662270319 1167.1872523662614 479.2140153668951 988.4604300367278 363.68080657243803 946.707488249808 C 248.1475977779809 877.1192519382753 132.6143889835238 793.6133683644359 201.93431426019808 710.1074847905966 Z" fill="#606b3d" opacity="0.72"/> <path d="M 521.2425548632095 557.5787676987972 C 366.6262192027889 332.1636853835498 521.2425548632095 246.4222055030553 714.5129744387353 396.81349292286995 C 778.9364476305773 321.7896980274372 1059.6021348232416 396.4697952939207 1059.6021348232416 753.5859986102059 C 1188.4490812069255 903.6335884010713 830.4752261840508 771.9324674000334 701.628279800367 739.779412444848 C 572.7813334166831 686.1909875195389 443.9343870329992 621.884877609168 521.2425548632095 557.5787676987972 Z" fill="#28292c" opacity="0.6"/> <line x1="278.0" y1="867.8" x2="1085.8" y2="867.8" stroke="#ffffff" stroke-opacity="0.14" stroke-width="1"/><line x1="245.6" y1="1028.4" x2="932.1" y2="1028.4" stroke="#ffffff" stroke-opacity="0.14" stroke-width="1"/><line x1="325.0" y1="1244.7" x2="1270.7" y2="1244.7" stroke="#ffffff" stroke-opacity="0.14" stroke-width="1"/> </g> <rect width="1200" height="1500" fill="url(#shdtechvest0)"/> <rect width="1200" height="1500" filter="url(#gtechvest0)" opacity="0.09"/> <text x="72.0" y="1395.0" font-family="Helvetica Neue, Arial, sans-serif" font-size="25" letter-spacing="10.5" fill="#d3d4d4" fill-opacity="0.85">NOVA</text> <text x="72.0" y="1447.5" font-family="Helvetica Neue, Arial, sans-serif" font-size="16" letter-spacing="2.6" fill="#b6b7b8" fill-opacity="0.5">DETAIL</text> </g> </svg>